<svg width="42" height="50" viewBox="0 0 42 50" fill="none" xmlns="http://www.w3.org/2000/svg">
<path d="M38.4662 15.8877C39.3113 15.8877 40.0283 16.1824 40.6177 16.7718C41.2072 17.3612 41.502 18.0685 41.502 18.894V31.5688C41.502 32.415 41.2072 33.1314 40.6177 33.7209C40.0283 34.3103 39.3113 34.6051 38.4662 34.6051C37.6217 34.6051 36.909 34.3104 36.3287 33.7209C35.7496 33.1315 35.4592 32.415 35.4592 31.5688V18.894C35.4592 18.0684 35.7539 17.3612 36.3434 16.7718C36.9329 16.1824 37.6407 15.8877 38.4662 15.8877Z" fill="white"/>
<path d="M14.0595 4.5095L11.9666 0.648733C11.8292 0.393134 11.8781 0.197134 12.1136 0.0593126C12.3693 -0.0595293 12.5658 0.000689809 12.7031 0.235713L14.8252 4.12734C16.6925 3.30174 18.6675 2.88819 20.7502 2.88819C22.8333 2.88819 24.8084 3.30183 26.675 4.12734L28.7973 0.235713C28.9352 0.000689809 29.1316 -0.0589972 29.3867 0.0593126C29.6228 0.197754 29.6716 0.393134 29.5337 0.648733L27.4408 4.5095C29.563 5.59176 31.2532 7.09901 32.5108 9.03453C33.7684 10.9711 34.3975 13.0874 34.3975 15.3871H7.13248C7.13248 13.0879 7.76163 10.9716 9.01914 9.03453C10.2768 7.09901 11.9573 5.59176 14.0595 4.5095ZM26.1594 10.125C26.3857 10.3519 26.6561 10.4648 26.9703 10.4648C27.2851 10.4648 27.55 10.3519 27.766 10.125C27.982 9.89924 28.0901 9.62999 28.0901 9.3147C28.0901 9.00048 27.982 8.73069 27.766 8.50436C27.55 8.27856 27.2845 8.16566 26.9703 8.16566C26.6561 8.16566 26.3857 8.27856 26.1594 8.50436C25.9336 8.73122 25.8202 9.00048 25.8202 9.3147C25.8208 9.62945 25.9341 9.89924 26.1594 10.125ZM13.7355 10.125C13.952 10.3519 14.2174 10.4648 14.5311 10.4648C14.846 10.4648 15.1163 10.3519 15.3421 10.125C15.5684 9.89924 15.6813 9.62999 15.6813 9.3147C15.6813 9.00048 15.5684 8.73069 15.3421 8.50436C15.1163 8.27856 14.846 8.16566 14.5311 8.16566C14.2169 8.16566 13.952 8.27856 13.7355 8.50436C13.5193 8.73122 13.4114 9.00048 13.4114 9.3147C13.4114 9.62945 13.5193 9.89924 13.7355 10.125Z" fill="white"/>
<path d="M34.2803 36.0787C34.2803 36.9835 33.9661 37.7494 33.3375 38.3779C32.7085 39.0065 31.9425 39.3207 31.0384 39.3207H28.857L28.8271 46.0125C28.8271 46.8576 28.5324 47.5751 27.943 48.1646C27.3536 48.7542 26.6457 49.0489 25.8208 49.0489C24.9762 49.0489 24.2587 48.7542 23.6692 48.1646C23.0797 47.5751 22.785 46.8577 22.785 46.0125V39.3213H18.7174V46.0125C18.7174 46.8576 18.4228 47.5751 17.8333 48.1646C17.2438 48.7542 16.5269 49.0489 15.6817 49.0489C14.8371 49.0489 14.1196 48.7542 13.5301 48.1646C12.9406 47.5751 12.646 46.8577 12.646 46.0125V39.3213H10.4352C9.55105 39.3213 8.79499 39.007 8.16531 38.3785C7.53686 37.7499 7.22246 36.984 7.22246 36.0793V16.4473H34.2803V36.0787Z" fill="white"/>
<path d="M3.03556 15.8877C3.86116 15.8877 4.56835 16.1781 5.15786 16.7572C5.74728 17.3374 6.04199 18.0501 6.04199 18.894V31.5688C6.04199 32.415 5.74737 33.1314 5.15786 33.7209C4.56835 34.3104 3.86062 34.6051 3.03556 34.6051C2.19098 34.6051 1.4735 34.3104 0.88399 33.7209C0.294481 33.1314 -0.00014019 32.415 -0.00014019 31.5688V18.894C-0.00014019 18.05 0.294481 17.3374 0.88399 16.7572C1.4735 16.1781 2.19098 15.8877 3.03556 15.8877Z" fill="white"/>
</svg>
