<svg width="40" height="40" viewBox="0 0 40 40" fill="none" xmlns="http://www.w3.org/2000/svg">
<path d="M17.3189 19.3002V19.293C16.4769 19.293 15.7974 19.989 15.7974 20.8446C15.7974 21.7001 16.4769 22.3962 17.3189 22.3962C18.1609 22.3962 18.8404 21.7002 18.8404 20.8518C18.8404 19.9962 18.1535 19.3002 17.3189 19.3002Z" fill="white"/>
<path d="M20 9C13.9249 9 9 13.9249 9 20C9 26.0751 13.9249 31 20 31C26.0751 31 31 26.0751 31 20C31 13.9249 26.0751 9 20 9ZM24.0697 25.8041C24.0697 25.8041 23.5156 25.1876 23.1169 24.644C25.0373 24.1002 25.7613 23.0126 25.7613 23.0126C23.7646 24.2471 21.8999 24.7221 20 24.6604C18.1001 24.722 16.2354 24.2471 14.2389 23.0126C14.2389 23.0126 14.9627 24.1002 16.8833 24.644C16.4845 25.1878 15.9305 25.8041 15.9305 25.8041C12.6361 25.7316 11.3584 23.7159 11.2845 23.8029C11.2845 19.3149 13.4634 15.6605 13.4634 15.6605C15.4133 14.2613 17.2302 14.2032 17.5774 14.1959L17.799 14.4062C15.3099 15.1022 14.1059 16.1898 14.1059 16.1898C16.2423 15.158 18.2558 14.795 20 14.7733C21.7442 14.7953 23.7576 15.158 25.8941 16.1898C25.8941 16.1898 24.6901 15.1022 22.2011 14.4062L22.4226 14.1959C22.7698 14.2032 24.5867 14.2612 26.5366 15.6605C26.5366 15.6605 28.7155 19.3148 28.7155 23.8029C28.6416 23.7159 27.3639 25.7316 24.0697 25.8041Z" fill="white"/>
<path d="M22.6807 19.293V19.3002C21.8461 19.3002 21.1592 19.9963 21.1592 20.8518C21.1592 21.7002 21.8388 22.3962 22.6807 22.3962C23.5227 22.3962 24.2023 21.7002 24.2023 20.8446C24.2023 19.989 23.5228 19.293 22.6807 19.293Z" fill="white"/>
</svg>
