<svg width="37" height="45" viewBox="0 0 37 45" fill="none" xmlns="http://www.w3.org/2000/svg">
<path fill-rule="evenodd" clip-rule="evenodd" d="M27.0175 0C27.0175 0 27.9463 4.32572 25.2042 7.11995C22.4619 9.9124 18.4356 10.2889 18.4356 10.2889C18.4356 10.2889 18.0088 6.04629 20.5869 3.36011C23.1669 0.675908 27.0175 0 27.0175 0ZM35.3595 15.3405C35.3595 15.3405 29.4464 18.9942 30.6842 25.2239C31.9221 31.4575 36.7073 33.0102 36.7073 33.0102C36.7073 33.0102 34.1273 39.9447 31.2771 42.3625C28.4345 44.7803 27.5693 45.4253 25.1014 44.7301C24.3092 44.5072 23.6114 44.2237 22.9461 43.9533C21.5305 43.3782 20.2617 42.8627 18.5434 43.1176C17.3938 43.29 16.3336 43.7063 15.3216 44.1037C14.1117 44.5788 12.9709 45.0268 11.8289 44.9985C9.7318 44.9444 6.77714 43.0655 3.87665 38.0658C0.976148 33.07 -0.528217 26.624 0.168908 21.5722C0.866034 16.5223 4.72444 12.2912 8.38965 11.3663C11.7688 10.5114 13.8251 11.3922 15.5913 12.1487C16.6058 12.5833 17.5246 12.9768 18.5434 12.9768C18.5434 12.9768 19.5089 12.9768 21.4439 12.1696C21.6142 12.0986 21.7845 12.0256 21.9562 11.952C23.7332 11.1901 25.6548 10.3663 29.1838 11.15C33.0557 12.0074 35.3595 15.3405 35.3595 15.3405Z" fill="white"/>
</svg>
