<svg width="41" height="41" viewBox="0 0 41 41" fill="none" xmlns="http://www.w3.org/2000/svg">
<path d="M31.3496 13.314L33.3407 11.4114V10.9941H26.4445L21.5303 23.2241L15.9403 10.9941H8.71072V11.4114L11.0352 14.2098C11.1461 14.3123 11.2317 14.4392 11.2853 14.5805C11.3388 14.7218 11.3587 14.8736 11.3436 15.0239V26.0225C11.3783 26.2182 11.3659 26.4194 11.3076 26.6095C11.2492 26.7995 11.1465 26.973 11.0079 27.1155L8.39551 30.2881V30.7008H15.8224V30.2836L13.2031 27.1087C13.0631 26.9665 12.9577 26.7939 12.8952 26.6043C12.8327 26.4147 12.8147 26.2133 12.8426 26.0157V16.5093L19.36 30.7054H20.1197L25.7233 16.5093V27.8185C25.7233 28.1156 25.7233 28.1768 25.5283 28.3741L23.5123 30.3244V30.7417H33.2953V30.3244L31.3519 28.4218C31.2671 28.3586 31.2011 28.2734 31.1611 28.1755C31.1212 28.0776 31.1087 27.9706 31.1251 27.8662V13.8696C31.1084 13.7651 31.1208 13.6581 31.1608 13.5601C31.2008 13.4622 31.2669 13.377 31.3519 13.314H31.3496Z" fill="white"/>
</svg>
