<svg width="41" height="41" viewBox="0 0 41 41" fill="none" xmlns="http://www.w3.org/2000/svg">
<path d="M30.3846 18.07C30.0144 18.0725 29.6484 18.1487 29.3081 18.2944C28.9678 18.44 28.6599 18.6521 28.4026 18.9182C26.5249 17.6006 23.9963 16.7525 21.1934 16.6504L22.6493 9.99234L27.2687 11.0604C27.266 11.3342 27.3174 11.6058 27.4201 11.8595C27.5227 12.1133 27.6744 12.3443 27.8666 12.5393C28.0588 12.7342 28.2877 12.8892 28.54 12.9954C28.7923 13.1016 29.0631 13.1569 29.3369 13.1581C29.7159 13.1655 30.0899 13.071 30.42 12.8845C30.75 12.698 31.024 12.4264 31.2133 12.0979C31.4025 11.7694 31.5002 11.3962 31.496 11.0171C31.4918 10.638 31.386 10.267 31.1895 9.94281C30.9931 9.61859 30.7132 9.35304 30.3791 9.17387C30.045 8.9947 29.669 8.90847 29.2902 8.92418C28.9115 8.9399 28.5439 9.05698 28.2258 9.26322C27.9077 9.46945 27.6508 9.75728 27.4819 10.0967L22.3613 8.93784C22.2341 8.91161 22.1018 8.9367 21.993 9.00764C21.8843 9.07857 21.808 9.18961 21.7807 9.31655L20.1933 16.6572C17.4131 16.7752 14.9095 17.621 13.0273 18.9409C12.768 18.6657 12.4552 18.4465 12.1081 18.2968C11.7611 18.147 11.387 18.0699 11.009 18.07C8.08585 18.07 7.12886 22.0499 9.8048 23.4106C9.7123 23.8436 9.66668 24.2853 9.66873 24.7281C9.66873 29.2001 14.6306 32.8217 20.7262 32.8217C26.8219 32.8217 31.8042 29.2001 31.8042 24.7236C31.8083 24.2717 31.7534 23.8211 31.6409 23.3834C34.2647 22.0227 33.2986 18.0678 30.3914 18.0655L30.3846 18.07ZM14.0409 23.694C14.0441 23.2848 14.1681 22.8857 14.3976 22.5468C14.627 22.2079 14.9514 21.9444 15.3302 21.7895C15.709 21.6345 16.1251 21.595 16.5262 21.6759C16.9274 21.7569 17.2956 21.9546 17.5847 22.2443C17.8737 22.534 18.0707 22.9027 18.1508 23.304C18.2308 23.7053 18.1904 24.1214 18.0346 24.4998C17.8789 24.8782 17.6147 25.2021 17.2753 25.4308C16.9359 25.6595 16.5365 25.7827 16.1273 25.7849C15.5737 25.7831 15.0434 25.5621 14.6524 25.1702C14.2614 24.7784 14.0415 24.2476 14.0409 23.694V23.694ZM25.3071 28.6831C23.3931 30.6243 17.9936 30.6243 16.0796 28.6831C16.0317 28.6375 15.9932 28.583 15.9663 28.5225C15.9395 28.4621 15.9248 28.3969 15.9231 28.3308C15.9214 28.2647 15.9328 28.1989 15.9565 28.1371C15.9803 28.0754 16.0159 28.019 16.0615 27.971C16.1071 27.9231 16.1616 27.8846 16.2221 27.8577C16.2825 27.8308 16.3477 27.8161 16.4138 27.8145C16.4799 27.8128 16.5457 27.8241 16.6074 27.8479C16.6692 27.8716 16.7256 27.9073 16.7736 27.9529C18.234 29.4723 23.0824 29.4995 24.6086 27.9529C24.7066 27.8669 24.834 27.8221 24.9642 27.8278C25.0945 27.8335 25.2175 27.8893 25.3076 27.9835C25.3977 28.0777 25.4479 28.203 25.4478 28.3334C25.4478 28.4637 25.3973 28.589 25.3071 28.6831V28.6831ZM25.264 25.7917C24.8465 25.7948 24.4376 25.6738 24.0891 25.4438C23.7407 25.2139 23.4685 24.8855 23.3072 24.5005C23.1458 24.1154 23.1027 23.6911 23.1832 23.2815C23.2637 22.8718 23.4642 22.4954 23.7593 22.2C24.0543 21.9047 24.4305 21.7037 24.8401 21.6228C25.2496 21.5418 25.674 21.5845 26.0592 21.7454C26.4445 21.9063 26.7731 22.1781 27.0034 22.5263C27.2337 22.8745 27.3553 23.2834 27.3526 23.7008C27.3538 23.9755 27.3006 24.2476 27.1961 24.5015C27.0915 24.7555 26.9377 24.9862 26.7435 25.1804C26.5494 25.3746 26.3186 25.5284 26.0647 25.6329C25.8107 25.7374 25.5386 25.7906 25.264 25.7894V25.7917Z" fill="white"/>
</svg>
