<svg width="41" height="41" viewBox="0 0 41 41" fill="none" xmlns="http://www.w3.org/2000/svg">
<path d="M32.6297 9.66179C32.6297 9.82036 29.4152 25.3486 28.1229 31.5527C27.9358 32.453 27.4532 32.6477 26.7022 32.1022C24.8179 30.7336 22.9343 29.3641 21.0514 27.9938C20.2594 27.4177 19.9355 27.4365 19.1656 28.0729C18.2209 28.854 17.2713 29.6293 16.3169 30.3988C15.5486 31.0167 15.0983 30.8759 14.8093 29.9466C14.0984 27.659 13.377 25.3743 12.6864 23.0811C12.577 22.7181 12.3983 22.5268 12.0528 22.4019C10.2991 21.7679 8.55302 21.115 6.8043 20.4687C6.4583 20.3406 6.11763 20.2027 5.8916 19.8859C5.8916 19.3192 6.05815 19.0487 6.60231 18.8393C14.8674 15.6603 23.1306 12.4765 31.3919 9.28778C31.941 9.07532 32.335 9.14455 32.6297 9.66179V9.66179ZM26.5964 13.9447C26.5243 13.9831 18.5168 18.9061 14.6188 21.3177C14.0318 21.6809 13.8189 22.1369 13.9923 22.7732C14.3905 24.2311 14.8263 25.6786 15.2406 27.1321C15.2977 27.332 15.3536 27.5284 15.5986 27.5315C15.9031 27.5356 15.917 27.2709 15.9482 27.0689C16.0505 26.4064 16.1611 25.7427 16.2119 25.0753C16.2332 24.7508 16.3186 24.4337 16.4632 24.1424C16.6078 23.8512 16.8087 23.5915 17.0542 23.3783C19.7122 20.9222 26.1687 14.9128 26.7444 14.3702C26.9334 14.1925 26.9181 13.9137 26.5964 13.9447V13.9447Z" fill="white"/>
</svg>
