<svg width="40" height="41" viewBox="0 0 40 41" fill="none" xmlns="http://www.w3.org/2000/svg">
<path d="M32.8829 12.8518C31.9106 13.2765 30.8821 13.5586 29.8291 13.6895C30.9391 13.0313 31.7688 11.9885 32.1608 10.7591C31.122 11.3757 29.9852 11.81 28.7998 12.0431C28.0734 11.2662 27.1301 10.7259 26.0924 10.4925C25.0548 10.2591 23.971 10.3433 22.9819 10.7341C21.9928 11.125 21.1442 11.8045 20.5464 12.6842C19.9487 13.5639 19.6296 14.6031 19.6305 15.6667C19.6268 16.0726 19.6681 16.4777 19.7539 16.8746C17.6453 16.771 15.5823 16.2238 13.6996 15.2686C11.8169 14.3135 10.1568 12.9719 8.82791 11.3315C8.14483 12.4984 7.93321 13.8822 8.23629 15.1999C8.53937 16.5177 9.33428 17.6699 10.4585 18.4212C9.61939 18.3985 8.79802 18.1743 8.0638 17.7673V17.8251C8.06616 19.0483 8.48954 20.2333 9.26277 21.1811C10.036 22.1289 11.1119 22.7816 12.3097 23.0295C11.8564 23.1485 11.3893 23.2068 10.9207 23.2028C10.5832 23.209 10.2461 23.1791 9.91499 23.1135C10.2582 24.1654 10.9188 25.0852 11.8061 25.7463C12.6934 26.4075 13.7637 26.7774 14.8699 26.8054C12.9954 28.2705 10.6846 29.0664 8.30537 29.0662C7.88146 29.0698 7.45777 29.0452 7.03711 28.9927C9.46302 30.5567 12.2907 31.3832 15.1771 31.3716C24.932 31.3716 30.265 23.292 30.265 16.289C30.265 16.0553 30.265 15.8295 30.2466 15.6037C31.2852 14.8541 32.1786 13.9216 32.8829 12.8518V12.8518Z" fill="white"/>
</svg>
