<svg width="41" height="41" viewBox="0 0 41 41" fill="none" xmlns="http://www.w3.org/2000/svg">
<path d="M27.1147 13.3848H14.0539C13.532 13.3848 13.0151 13.4876 12.533 13.6874C12.0508 13.8873 11.6127 14.1801 11.2437 14.5493C10.8748 14.9185 10.5822 15.3568 10.3827 15.8391C10.1832 16.3214 10.0807 16.8383 10.0811 17.3602V24.4237C10.0807 24.9456 10.1832 25.4625 10.3827 25.9448C10.5822 26.4271 10.8748 26.8654 11.2437 27.2346C11.6127 27.6038 12.0508 27.8966 12.533 28.0965C13.0151 28.2963 13.532 28.3991 14.0539 28.3991H27.1147C27.6366 28.3991 28.1534 28.2963 28.6356 28.0965C29.1178 27.8966 29.5559 27.6038 29.9248 27.2346C30.2938 26.8654 30.5864 26.4271 30.7859 25.9448C30.9854 25.4625 31.0879 24.9456 31.0875 24.4237V17.3602C31.0879 16.8383 30.9854 16.3214 30.7859 15.8391C30.5864 15.3568 30.2938 14.9185 29.9248 14.5493C29.5559 14.1801 29.1178 13.8873 28.6356 13.6874C28.1534 13.4876 27.6366 13.3848 27.1147 13.3848V13.3848ZM17.8167 24.1112V17.6727L23.3519 20.892L17.8167 24.1112Z" fill="white"/>
</svg>
